<?xml version="1.0" encoding="UTF-8" standalone="no"?>
<!DOCTYPE svg PUBLIC "-//W3C//DTD SVG 1.1//EN"
 "http://www.w3.org/Graphics/SVG/1.1/DTD/svg11.dtd">
<!-- Generated by graphviz version 2.43.0 (0)
 -->
<!-- Title: %3 Pages: 1 -->
<svg width="1501pt" height="1080pt"
 viewBox="0.00 0.00 1501.00 1080.11" xmlns="http://www.w3.org/2000/svg" xmlns:xlink="http://www.w3.org/1999/xlink">
<g id="graph0" class="graph" transform="scale(1.45 1.45) rotate(0) translate(4 1564)">
<title>%3</title>
<polygon fill="white" stroke="transparent" points="-4,4 -4,-1564 2175,-1564 2175,4 -4,4"/>
<!-- 139966699335536 -->
<g id="node1" class="node">
<title>139966699335536</title>
<polygon fill="#caff70" stroke="black" points="1892,-31 1809,-31 1809,0 1892,0 1892,-31"/>
<text text-anchor="middle" x="1850.5" y="-7" font-family="monospace" font-size="10.00"> (14184, 1)</text>
</g>
<!-- 139971370779696 -->
<g id="node2" class="node">
<title>139971370779696</title>
<polygon fill="lightgrey" stroke="black" points="1901,-86 1800,-86 1800,-67 1901,-67 1901,-86"/>
<text text-anchor="middle" x="1850.5" y="-74" font-family="monospace" font-size="10.00">AddmmBackward0</text>
</g>
<!-- 139971370779696&#45;&gt;139966699335536 -->
<g id="edge69" class="edge">
<title>139971370779696&#45;&gt;139966699335536</title>
<path fill="none" stroke="black" d="M1850.5,-66.79C1850.5,-60.07 1850.5,-50.4 1850.5,-41.34"/>
<polygon fill="black" stroke="black" points="1854,-41.19 1850.5,-31.19 1847,-41.19 1854,-41.19"/>
</g>
<!-- 139971370782864 -->
<g id="node3" class="node">
<title>139971370782864</title>
<polygon fill="lightgrey" stroke="black" points="1782,-141 1681,-141 1681,-122 1782,-122 1782,-141"/>
<text text-anchor="middle" x="1731.5" y="-129" font-family="monospace" font-size="10.00">AccumulateGrad</text>
</g>
<!-- 139971370782864&#45;&gt;139971370779696 -->
<g id="edge1" class="edge">
<title>139971370782864&#45;&gt;139971370779696</title>
<path fill="none" stroke="black" d="M1750.62,-121.98C1769.85,-113.42 1799.73,-100.11 1821.81,-90.28"/>
<polygon fill="black" stroke="black" points="1823.32,-93.44 1831.03,-86.17 1820.47,-87.04 1823.32,-93.44"/>
</g>
<!-- 139972819779024 -->
<g id="node4" class="node">
<title>139972819779024</title>
<polygon fill="lightblue" stroke="black" points="1761,-207 1702,-207 1702,-177 1761,-177 1761,-207"/>
<text text-anchor="middle" x="1731.5" y="-195" font-family="monospace" font-size="10.00">fc.bias</text>
<text text-anchor="middle" x="1731.5" y="-184" font-family="monospace" font-size="10.00"> (1)</text>
</g>
<!-- 139972819779024&#45;&gt;139971370782864 -->
<g id="edge2" class="edge">
<title>139972819779024&#45;&gt;139971370782864</title>
<path fill="none" stroke="black" d="M1731.5,-176.84C1731.5,-169.21 1731.5,-159.7 1731.5,-151.45"/>
<polygon fill="black" stroke="black" points="1735,-151.27 1731.5,-141.27 1728,-151.27 1735,-151.27"/>
</g>
<!-- 139971370791360 -->
<g id="node5" class="node">
<title>139971370791360</title>
<polygon fill="lightgrey" stroke="black" points="1901,-141 1800,-141 1800,-122 1901,-122 1901,-141"/>
<text text-anchor="middle" x="1850.5" y="-129" font-family="monospace" font-size="10.00">SliceBackward0</text>
</g>
<!-- 139971370791360&#45;&gt;139971370779696 -->
<g id="edge3" class="edge">
<title>139971370791360&#45;&gt;139971370779696</title>
<path fill="none" stroke="black" d="M1850.5,-121.75C1850.5,-114.8 1850.5,-104.85 1850.5,-96.13"/>
<polygon fill="black" stroke="black" points="1854,-96.09 1850.5,-86.09 1847,-96.09 1854,-96.09"/>
</g>
<!-- 139970529364096 -->
<g id="node6" class="node">
<title>139970529364096</title>
<polygon fill="lightgrey" stroke="black" points="1900,-201.5 1793,-201.5 1793,-182.5 1900,-182.5 1900,-201.5"/>
<text text-anchor="middle" x="1846.5" y="-189.5" font-family="monospace" font-size="10.00">SelectBackward0</text>
</g>
<!-- 139970529364096&#45;&gt;139971370791360 -->
<g id="edge4" class="edge">
<title>139970529364096&#45;&gt;139971370791360</title>
<path fill="none" stroke="black" d="M1847.09,-182.37C1847.65,-174.25 1848.5,-161.81 1849.21,-151.39"/>
<polygon fill="black" stroke="black" points="1852.72,-151.38 1849.91,-141.17 1845.73,-150.91 1852.72,-151.38"/>
</g>
<!-- 139966700974720 -->
<g id="node7" class="node">
<title>139966700974720</title>
<polygon fill="lightgrey" stroke="black" points="1897,-267.5 1796,-267.5 1796,-248.5 1897,-248.5 1897,-267.5"/>
<text text-anchor="middle" x="1846.5" y="-255.5" font-family="monospace" font-size="10.00">SliceBackward0</text>
</g>
<!-- 139966700974720&#45;&gt;139970529364096 -->
<g id="edge5" class="edge">
<title>139966700974720&#45;&gt;139970529364096</title>
<path fill="none" stroke="black" d="M1846.5,-248.37C1846.5,-239.16 1846.5,-224.29 1846.5,-212.27"/>
<polygon fill="black" stroke="black" points="1850,-211.91 1846.5,-201.91 1843,-211.91 1850,-211.91"/>
</g>
<!-- 139966700973520 -->
<g id="node8" class="node">
<title>139966700973520</title>
<polygon fill="lightgrey" stroke="black" points="1921,-328 1772,-328 1772,-309 1921,-309 1921,-328"/>
<text text-anchor="middle" x="1846.5" y="-316" font-family="monospace" font-size="10.00">NativeDropoutBackward0</text>
</g>
<!-- 139966700973520&#45;&gt;139966700974720 -->
<g id="edge6" class="edge">
<title>139966700973520&#45;&gt;139966700974720</title>
<path fill="none" stroke="black" d="M1846.5,-308.87C1846.5,-300.75 1846.5,-288.31 1846.5,-277.89"/>
<polygon fill="black" stroke="black" points="1850,-277.67 1846.5,-267.67 1843,-277.67 1850,-277.67"/>
</g>
<!-- 139966700975968 -->
<g id="node9" class="node">
<title>139966700975968</title>
<polygon fill="lightgrey" stroke="black" points="1906,-383 1787,-383 1787,-364 1906,-364 1906,-383"/>
<text text-anchor="middle" x="1846.5" y="-371" font-family="monospace" font-size="10.00">CudnnRnnBackward0</text>
</g>
<!-- 139966700975968&#45;&gt;139966700973520 -->
<g id="edge7" class="edge">
<title>139966700975968&#45;&gt;139966700973520</title>
<path fill="none" stroke="black" d="M1846.5,-363.75C1846.5,-356.8 1846.5,-346.85 1846.5,-338.13"/>
<polygon fill="black" stroke="black" points="1850,-338.09 1846.5,-328.09 1843,-338.09 1850,-338.09"/>
</g>
<!-- 139966700974768 -->
<g id="node10" class="node">
<title>139966700974768</title>
<polygon fill="lightgrey" stroke="black" points="1454,-438 1335,-438 1335,-419 1454,-419 1454,-438"/>
<text text-anchor="middle" x="1394.5" y="-426" font-family="monospace" font-size="10.00">CudnnRnnBackward0</text>
</g>
<!-- 139966700974768&#45;&gt;139966700975968 -->
<g id="edge8" class="edge">
<title>139966700974768&#45;&gt;139966700975968</title>
<path fill="none" stroke="black" d="M1454.06,-420.52C1537.38,-410.75 1688.45,-393.03 1776.88,-382.66"/>
<polygon fill="black" stroke="black" points="1777.29,-386.14 1786.81,-381.5 1776.47,-379.19 1777.29,-386.14"/>
</g>
<!-- 139966700976256 -->
<g id="node11" class="node">
<title>139966700976256</title>
<polygon fill="lightgrey" stroke="black" points="942,-498.5 823,-498.5 823,-479.5 942,-479.5 942,-498.5"/>
<text text-anchor="middle" x="882.5" y="-486.5" font-family="monospace" font-size="10.00">CudnnRnnBackward0</text>
</g>
<!-- 139966700976256&#45;&gt;139966700974768 -->
<g id="edge9" class="edge">
<title>139966700976256&#45;&gt;139966700974768</title>
<path fill="none" stroke="black" d="M942.23,-481.17C1037.49,-470.29 1223.34,-449.06 1324.62,-437.48"/>
<polygon fill="black" stroke="black" points="1325.21,-440.94 1334.75,-436.33 1324.42,-433.98 1325.21,-440.94"/>
</g>
<!-- 139966700974912 -->
<g id="node12" class="node">
<title>139966700974912</title>
<polygon fill="lightgrey" stroke="black" points="611,-564.5 486,-564.5 486,-545.5 611,-545.5 611,-564.5"/>
<text text-anchor="middle" x="548.5" y="-552.5" font-family="monospace" font-size="10.00">TransposeBackward0</text>
</g>
<!-- 139966700974912&#45;&gt;139966700976256 -->
<g id="edge10" class="edge">
<title>139966700974912&#45;&gt;139966700976256</title>
<path fill="none" stroke="black" d="M593.2,-545.44C653.94,-533.8 762.47,-513 827.94,-500.45"/>
<polygon fill="black" stroke="black" points="828.9,-503.83 838.07,-498.51 827.59,-496.96 828.9,-503.83"/>
</g>
<!-- 139966700972464 -->
<g id="node13" class="node">
<title>139966700972464</title>
<polygon fill="lightgrey" stroke="black" points="599,-630.5 450,-630.5 450,-611.5 599,-611.5 599,-630.5"/>
<text text-anchor="middle" x="524.5" y="-618.5" font-family="monospace" font-size="10.00">NativeDropoutBackward0</text>
</g>
<!-- 139966700972464&#45;&gt;139966700974912 -->
<g id="edge11" class="edge">
<title>139966700972464&#45;&gt;139966700974912</title>
<path fill="none" stroke="black" d="M527.74,-611.37C531.26,-601.97 537,-586.67 541.55,-574.53"/>
<polygon fill="black" stroke="black" points="544.93,-575.5 545.16,-564.91 538.37,-573.04 544.93,-575.5"/>
</g>
<!-- 139966700973184 -->
<g id="node14" class="node">
<title>139966700973184</title>
<polygon fill="lightgrey" stroke="black" points="581,-691 468,-691 468,-672 581,-672 581,-691"/>
<text text-anchor="middle" x="524.5" y="-679" font-family="monospace" font-size="10.00">SqueezeBackward1</text>
</g>
<!-- 139966700973184&#45;&gt;139966700972464 -->
<g id="edge12" class="edge">
<title>139966700973184&#45;&gt;139966700972464</title>
<path fill="none" stroke="black" d="M524.5,-671.87C524.5,-663.75 524.5,-651.31 524.5,-640.89"/>
<polygon fill="black" stroke="black" points="528,-640.67 524.5,-630.67 521,-640.67 528,-640.67"/>
</g>
<!-- 139966700972896 -->
<g id="node15" class="node">
<title>139966700972896</title>
<polygon fill="lightgrey" stroke="black" points="620,-746 429,-746 429,-727 620,-727 620,-746"/>
<text text-anchor="middle" x="524.5" y="-734" font-family="monospace" font-size="10.00">MaxPool2DWithIndicesBackward0</text>
</g>
<!-- 139966700972896&#45;&gt;139966700973184 -->
<g id="edge13" class="edge">
<title>139966700972896&#45;&gt;139966700973184</title>
<path fill="none" stroke="black" d="M524.5,-726.75C524.5,-719.8 524.5,-709.85 524.5,-701.13"/>
<polygon fill="black" stroke="black" points="528,-701.09 524.5,-691.09 521,-701.09 528,-701.09"/>
</g>
<!-- 139966700972128 -->
<g id="node16" class="node">
<title>139966700972128</title>
<polygon fill="lightgrey" stroke="black" points="587,-801 462,-801 462,-782 587,-782 587,-801"/>
<text text-anchor="middle" x="524.5" y="-789" font-family="monospace" font-size="10.00">UnsqueezeBackward0</text>
</g>
<!-- 139966700972128&#45;&gt;139966700972896 -->
<g id="edge14" class="edge">
<title>139966700972128&#45;&gt;139966700972896</title>
<path fill="none" stroke="black" d="M524.5,-781.75C524.5,-774.8 524.5,-764.85 524.5,-756.13"/>
<polygon fill="black" stroke="black" points="528,-756.09 524.5,-746.09 521,-756.09 528,-756.09"/>
</g>
<!-- 139966700971696 -->
<g id="node17" class="node">
<title>139966700971696</title>
<polygon fill="lightgrey" stroke="black" points="572,-856 477,-856 477,-837 572,-837 572,-856"/>
<text text-anchor="middle" x="524.5" y="-844" font-family="monospace" font-size="10.00">ReluBackward0</text>
</g>
<!-- 139966700971696&#45;&gt;139966700972128 -->
<g id="edge15" class="edge">
<title>139966700971696&#45;&gt;139966700972128</title>
<path fill="none" stroke="black" d="M524.5,-836.75C524.5,-829.8 524.5,-819.85 524.5,-811.13"/>
<polygon fill="black" stroke="black" points="528,-811.09 524.5,-801.09 521,-811.09 528,-811.09"/>
</g>
<!-- 139966700973952 -->
<g id="node18" class="node">
<title>139966700973952</title>
<polygon fill="lightgrey" stroke="black" points="593,-911 456,-911 456,-892 593,-892 593,-911"/>
<text text-anchor="middle" x="524.5" y="-899" font-family="monospace" font-size="10.00">ConvolutionBackward0</text>
</g>
<!-- 139966700973952&#45;&gt;139966700971696 -->
<g id="edge16" class="edge">
<title>139966700973952&#45;&gt;139966700971696</title>
<path fill="none" stroke="black" d="M524.5,-891.75C524.5,-884.8 524.5,-874.85 524.5,-866.13"/>
<polygon fill="black" stroke="black" points="528,-866.09 524.5,-856.09 521,-866.09 528,-866.09"/>
</g>
<!-- 139966700973376 -->
<g id="node19" class="node">
<title>139966700973376</title>
<polygon fill="lightgrey" stroke="black" points="449,-966 354,-966 354,-947 449,-947 449,-966"/>
<text text-anchor="middle" x="401.5" y="-954" font-family="monospace" font-size="10.00">ReluBackward0</text>
</g>
<!-- 139966700973376&#45;&gt;139966700973952 -->
<g id="edge17" class="edge">
<title>139966700973376&#45;&gt;139966700973952</title>
<path fill="none" stroke="black" d="M421.26,-946.98C441.23,-938.38 472.3,-924.99 495.15,-915.15"/>
<polygon fill="black" stroke="black" points="496.58,-918.34 504.38,-911.17 493.81,-911.91 496.58,-918.34"/>
</g>
<!-- 139966700977744 -->
<g id="node20" class="node">
<title>139966700977744</title>
<polygon fill="lightgrey" stroke="black" points="462,-1026.5 325,-1026.5 325,-1007.5 462,-1007.5 462,-1026.5"/>
<text text-anchor="middle" x="393.5" y="-1014.5" font-family="monospace" font-size="10.00">ConvolutionBackward0</text>
</g>
<!-- 139966700977744&#45;&gt;139966700973376 -->
<g id="edge18" class="edge">
<title>139966700977744&#45;&gt;139966700973376</title>
<path fill="none" stroke="black" d="M394.68,-1007.37C395.79,-999.25 397.49,-986.81 398.92,-976.39"/>
<polygon fill="black" stroke="black" points="402.43,-976.55 400.31,-966.17 395.49,-975.6 402.43,-976.55"/>
</g>
<!-- 139966700975104 -->
<g id="node21" class="node">
<title>139966700975104</title>
<polygon fill="lightgrey" stroke="black" points="309,-1087 196,-1087 196,-1068 309,-1068 309,-1087"/>
<text text-anchor="middle" x="252.5" y="-1075" font-family="monospace" font-size="10.00">SqueezeBackward1</text>
</g>
<!-- 139966700975104&#45;&gt;139966700977744 -->
<g id="edge19" class="edge">
<title>139966700975104&#45;&gt;139966700977744</title>
<path fill="none" stroke="black" d="M273,-1067.99C296.81,-1058.12 336.29,-1041.73 363.54,-1030.43"/>
<polygon fill="black" stroke="black" points="365.08,-1033.58 372.97,-1026.52 362.39,-1027.12 365.08,-1033.58"/>
</g>
<!-- 139966700973808 -->
<g id="node22" class="node">
<title>139966700973808</title>
<polygon fill="lightgrey" stroke="black" points="331,-1147.5 140,-1147.5 140,-1128.5 331,-1128.5 331,-1147.5"/>
<text text-anchor="middle" x="235.5" y="-1135.5" font-family="monospace" font-size="10.00">MaxPool2DWithIndicesBackward0</text>
</g>
<!-- 139966700973808&#45;&gt;139966700975104 -->
<g id="edge20" class="edge">
<title>139966700973808&#45;&gt;139966700975104</title>
<path fill="none" stroke="black" d="M238.01,-1128.37C240.39,-1120.16 244.06,-1107.54 247.11,-1097.05"/>
<polygon fill="black" stroke="black" points="250.55,-1097.75 249.98,-1087.17 243.83,-1095.79 250.55,-1097.75"/>
</g>
<!-- 139966700961952 -->
<g id="node23" class="node">
<title>139966700961952</title>
<polygon fill="lightgrey" stroke="black" points="298,-1208 173,-1208 173,-1189 298,-1189 298,-1208"/>
<text text-anchor="middle" x="235.5" y="-1196" font-family="monospace" font-size="10.00">UnsqueezeBackward0</text>
</g>
<!-- 139966700961952&#45;&gt;139966700973808 -->
<g id="edge21" class="edge">
<title>139966700961952&#45;&gt;139966700973808</title>
<path fill="none" stroke="black" d="M235.5,-1188.87C235.5,-1180.75 235.5,-1168.31 235.5,-1157.89"/>
<polygon fill="black" stroke="black" points="239,-1157.67 235.5,-1147.67 232,-1157.67 239,-1157.67"/>
</g>
<!-- 139966700967856 -->
<g id="node24" class="node">
<title>139966700967856</title>
<polygon fill="lightgrey" stroke="black" points="283,-1263 188,-1263 188,-1244 283,-1244 283,-1263"/>
<text text-anchor="middle" x="235.5" y="-1251" font-family="monospace" font-size="10.00">ReluBackward0</text>
</g>
<!-- 139966700967856&#45;&gt;139966700961952 -->
<g id="edge22" class="edge">
<title>139966700967856&#45;&gt;139966700961952</title>
<path fill="none" stroke="black" d="M235.5,-1243.75C235.5,-1236.8 235.5,-1226.85 235.5,-1218.13"/>
<polygon fill="black" stroke="black" points="239,-1218.09 235.5,-1208.09 232,-1218.09 239,-1218.09"/>
</g>
<!-- 139966700963584 -->
<g id="node25" class="node">
<title>139966700963584</title>
<polygon fill="lightgrey" stroke="black" points="304,-1318 167,-1318 167,-1299 304,-1299 304,-1318"/>
<text text-anchor="middle" x="235.5" y="-1306" font-family="monospace" font-size="10.00">ConvolutionBackward0</text>
</g>
<!-- 139966700963584&#45;&gt;139966700967856 -->
<g id="edge23" class="edge">
<title>139966700963584&#45;&gt;139966700967856</title>
<path fill="none" stroke="black" d="M235.5,-1298.75C235.5,-1291.8 235.5,-1281.85 235.5,-1273.13"/>
<polygon fill="black" stroke="black" points="239,-1273.09 235.5,-1263.09 232,-1273.09 239,-1273.09"/>
</g>
<!-- 139966700963776 -->
<g id="node26" class="node">
<title>139966700963776</title>
<polygon fill="lightgrey" stroke="black" points="162,-1373 67,-1373 67,-1354 162,-1354 162,-1373"/>
<text text-anchor="middle" x="114.5" y="-1361" font-family="monospace" font-size="10.00">ReluBackward0</text>
</g>
<!-- 139966700963776&#45;&gt;139966700963584 -->
<g id="edge24" class="edge">
<title>139966700963776&#45;&gt;139966700963584</title>
<path fill="none" stroke="black" d="M133.94,-1353.98C153.49,-1345.42 183.88,-1332.11 206.32,-1322.28"/>
<polygon fill="black" stroke="black" points="207.95,-1325.39 215.71,-1318.17 205.14,-1318.98 207.95,-1325.39"/>
</g>
<!-- 139966700966272 -->
<g id="node27" class="node">
<title>139966700966272</title>
<polygon fill="lightgrey" stroke="black" points="178,-1433.5 41,-1433.5 41,-1414.5 178,-1414.5 178,-1433.5"/>
<text text-anchor="middle" x="109.5" y="-1421.5" font-family="monospace" font-size="10.00">ConvolutionBackward0</text>
</g>
<!-- 139966700966272&#45;&gt;139966700963776 -->
<g id="edge25" class="edge">
<title>139966700966272&#45;&gt;139966700963776</title>
<path fill="none" stroke="black" d="M110.24,-1414.37C110.93,-1406.25 112,-1393.81 112.89,-1383.39"/>
<polygon fill="black" stroke="black" points="116.39,-1383.43 113.76,-1373.17 109.42,-1382.83 116.39,-1383.43"/>
</g>
<!-- 139966700673472 -->
<g id="node28" class="node">
<title>139966700673472</title>
<polygon fill="lightgrey" stroke="black" points="101,-1494 0,-1494 0,-1475 101,-1475 101,-1494"/>
<text text-anchor="middle" x="50.5" y="-1482" font-family="monospace" font-size="10.00">AccumulateGrad</text>
</g>
<!-- 139966700673472&#45;&gt;139966700966272 -->
<g id="edge26" class="edge">
<title>139966700673472&#45;&gt;139966700966272</title>
<path fill="none" stroke="black" d="M59.21,-1474.87C68.18,-1465.97 82.38,-1451.89 93.41,-1440.95"/>
<polygon fill="black" stroke="black" points="96.12,-1443.19 100.76,-1433.67 91.19,-1438.22 96.12,-1443.19"/>
</g>
<!-- 139970443760864 -->
<g id="node29" class="node">
<title>139970443760864</title>
<polygon fill="lightblue" stroke="black" points="95,-1560 6,-1560 6,-1530 95,-1530 95,-1560"/>
<text text-anchor="middle" x="50.5" y="-1548" font-family="monospace" font-size="10.00">conv1.weight</text>
<text text-anchor="middle" x="50.5" y="-1537" font-family="monospace" font-size="10.00"> (64, 14, 3)</text>
</g>
<!-- 139970443760864&#45;&gt;139966700673472 -->
<g id="edge27" class="edge">
<title>139970443760864&#45;&gt;139966700673472</title>
<path fill="none" stroke="black" d="M50.5,-1529.84C50.5,-1522.21 50.5,-1512.7 50.5,-1504.45"/>
<polygon fill="black" stroke="black" points="54,-1504.27 50.5,-1494.27 47,-1504.27 54,-1504.27"/>
</g>
<!-- 139966700672992 -->
<g id="node30" class="node">
<title>139966700672992</title>
<polygon fill="lightgrey" stroke="black" points="220,-1494 119,-1494 119,-1475 220,-1475 220,-1494"/>
<text text-anchor="middle" x="169.5" y="-1482" font-family="monospace" font-size="10.00">AccumulateGrad</text>
</g>
<!-- 139966700672992&#45;&gt;139966700966272 -->
<g id="edge28" class="edge">
<title>139966700672992&#45;&gt;139966700966272</title>
<path fill="none" stroke="black" d="M160.65,-1474.87C151.52,-1465.97 137.08,-1451.89 125.86,-1440.95"/>
<polygon fill="black" stroke="black" points="127.99,-1438.14 118.39,-1433.67 123.11,-1443.15 127.99,-1438.14"/>
</g>
<!-- 139972718207088 -->
<g id="node31" class="node">
<title>139972718207088</title>
<polygon fill="lightblue" stroke="black" points="208,-1560 131,-1560 131,-1530 208,-1530 208,-1560"/>
<text text-anchor="middle" x="169.5" y="-1548" font-family="monospace" font-size="10.00">conv1.bias</text>
<text text-anchor="middle" x="169.5" y="-1537" font-family="monospace" font-size="10.00"> (64)</text>
</g>
<!-- 139972718207088&#45;&gt;139966700672992 -->
<g id="edge29" class="edge">
<title>139972718207088&#45;&gt;139966700672992</title>
<path fill="none" stroke="black" d="M169.5,-1529.84C169.5,-1522.21 169.5,-1512.7 169.5,-1504.45"/>
<polygon fill="black" stroke="black" points="173,-1504.27 169.5,-1494.27 166,-1504.27 173,-1504.27"/>
</g>
<!-- 139966700976592 -->
<g id="node32" class="node">
<title>139966700976592</title>
<polygon fill="lightgrey" stroke="black" points="286,-1373 185,-1373 185,-1354 286,-1354 286,-1373"/>
<text text-anchor="middle" x="235.5" y="-1361" font-family="monospace" font-size="10.00">AccumulateGrad</text>
</g>
<!-- 139966700976592&#45;&gt;139966700963584 -->
<g id="edge30" class="edge">
<title>139966700976592&#45;&gt;139966700963584</title>
<path fill="none" stroke="black" d="M235.5,-1353.75C235.5,-1346.8 235.5,-1336.85 235.5,-1328.13"/>
<polygon fill="black" stroke="black" points="239,-1328.09 235.5,-1318.09 232,-1328.09 239,-1328.09"/>
</g>
<!-- 139970443905520 -->
<g id="node33" class="node">
<title>139970443905520</title>
<polygon fill="lightblue" stroke="black" points="291,-1439 196,-1439 196,-1409 291,-1409 291,-1439"/>
<text text-anchor="middle" x="243.5" y="-1427" font-family="monospace" font-size="10.00">conv2.weight</text>
<text text-anchor="middle" x="243.5" y="-1416" font-family="monospace" font-size="10.00"> (128, 64, 3)</text>
</g>
<!-- 139970443905520&#45;&gt;139966700976592 -->
<g id="edge31" class="edge">
<title>139970443905520&#45;&gt;139966700976592</title>
<path fill="none" stroke="black" d="M241.56,-1408.84C240.52,-1401.21 239.22,-1391.7 238.09,-1383.45"/>
<polygon fill="black" stroke="black" points="241.52,-1382.7 236.7,-1373.27 234.59,-1383.65 241.52,-1382.7"/>
</g>
<!-- 139966700977360 -->
<g id="node34" class="node">
<title>139966700977360</title>
<polygon fill="lightgrey" stroke="black" points="405,-1373 304,-1373 304,-1354 405,-1354 405,-1373"/>
<text text-anchor="middle" x="354.5" y="-1361" font-family="monospace" font-size="10.00">AccumulateGrad</text>
</g>
<!-- 139966700977360&#45;&gt;139966700963584 -->
<g id="edge32" class="edge">
<title>139966700977360&#45;&gt;139966700963584</title>
<path fill="none" stroke="black" d="M335.38,-1353.98C316.15,-1345.42 286.27,-1332.11 264.19,-1322.28"/>
<polygon fill="black" stroke="black" points="265.53,-1319.04 254.97,-1318.17 262.68,-1325.44 265.53,-1319.04"/>
</g>
<!-- 139972718207168 -->
<g id="node35" class="node">
<title>139972718207168</title>
<polygon fill="lightblue" stroke="black" points="393,-1439 316,-1439 316,-1409 393,-1409 393,-1439"/>
<text text-anchor="middle" x="354.5" y="-1427" font-family="monospace" font-size="10.00">conv2.bias</text>
<text text-anchor="middle" x="354.5" y="-1416" font-family="monospace" font-size="10.00"> (128)</text>
</g>
<!-- 139972718207168&#45;&gt;139966700977360 -->
<g id="edge33" class="edge">
<title>139972718207168&#45;&gt;139966700977360</title>
<path fill="none" stroke="black" d="M354.5,-1408.84C354.5,-1401.21 354.5,-1391.7 354.5,-1383.45"/>
<polygon fill="black" stroke="black" points="358,-1383.27 354.5,-1373.27 351,-1383.27 358,-1383.27"/>
</g>
<!-- 139966700977456 -->
<g id="node36" class="node">
<title>139966700977456</title>
<polygon fill="lightgrey" stroke="black" points="444,-1087 343,-1087 343,-1068 444,-1068 444,-1087"/>
<text text-anchor="middle" x="393.5" y="-1075" font-family="monospace" font-size="10.00">AccumulateGrad</text>
</g>
<!-- 139966700977456&#45;&gt;139966700977744 -->
<g id="edge34" class="edge">
<title>139966700977456&#45;&gt;139966700977744</title>
<path fill="none" stroke="black" d="M393.5,-1067.87C393.5,-1059.75 393.5,-1047.31 393.5,-1036.89"/>
<polygon fill="black" stroke="black" points="397,-1036.67 393.5,-1026.67 390,-1036.67 397,-1036.67"/>
</g>
<!-- 139970443767024 -->
<g id="node37" class="node">
<title>139970443767024</title>
<polygon fill="lightblue" stroke="black" points="450,-1153 349,-1153 349,-1123 450,-1123 450,-1153"/>
<text text-anchor="middle" x="399.5" y="-1141" font-family="monospace" font-size="10.00">conv3.weight</text>
<text text-anchor="middle" x="399.5" y="-1130" font-family="monospace" font-size="10.00"> (128, 128, 5)</text>
</g>
<!-- 139970443767024&#45;&gt;139966700977456 -->
<g id="edge35" class="edge">
<title>139970443767024&#45;&gt;139966700977456</title>
<path fill="none" stroke="black" d="M398.05,-1122.84C397.27,-1115.21 396.29,-1105.7 395.44,-1097.45"/>
<polygon fill="black" stroke="black" points="398.9,-1096.86 394.4,-1087.27 391.94,-1097.57 398.9,-1096.86"/>
</g>
<!-- 139966700977552 -->
<g id="node38" class="node">
<title>139966700977552</title>
<polygon fill="lightgrey" stroke="black" points="563,-1087 462,-1087 462,-1068 563,-1068 563,-1087"/>
<text text-anchor="middle" x="512.5" y="-1075" font-family="monospace" font-size="10.00">AccumulateGrad</text>
</g>
<!-- 139966700977552&#45;&gt;139966700977744 -->
<g id="edge36" class="edge">
<title>139966700977552&#45;&gt;139966700977744</title>
<path fill="none" stroke="black" d="M495.2,-1067.99C475.45,-1058.29 442.95,-1042.31 420.01,-1031.03"/>
<polygon fill="black" stroke="black" points="421.34,-1027.79 410.82,-1026.52 418.25,-1034.07 421.34,-1027.79"/>
</g>
<!-- 139970443768784 -->
<g id="node39" class="node">
<title>139970443768784</title>
<polygon fill="lightblue" stroke="black" points="551,-1153 474,-1153 474,-1123 551,-1123 551,-1153"/>
<text text-anchor="middle" x="512.5" y="-1141" font-family="monospace" font-size="10.00">conv3.bias</text>
<text text-anchor="middle" x="512.5" y="-1130" font-family="monospace" font-size="10.00"> (128)</text>
</g>
<!-- 139970443768784&#45;&gt;139966700977552 -->
<g id="edge37" class="edge">
<title>139970443768784&#45;&gt;139966700977552</title>
<path fill="none" stroke="black" d="M512.5,-1122.84C512.5,-1115.21 512.5,-1105.7 512.5,-1097.45"/>
<polygon fill="black" stroke="black" points="516,-1097.27 512.5,-1087.27 509,-1097.27 516,-1097.27"/>
</g>
<!-- 139966700973088 -->
<g id="node40" class="node">
<title>139966700973088</title>
<polygon fill="lightgrey" stroke="black" points="575,-966 474,-966 474,-947 575,-947 575,-966"/>
<text text-anchor="middle" x="524.5" y="-954" font-family="monospace" font-size="10.00">AccumulateGrad</text>
</g>
<!-- 139966700973088&#45;&gt;139966700973952 -->
<g id="edge38" class="edge">
<title>139966700973088&#45;&gt;139966700973952</title>
<path fill="none" stroke="black" d="M524.5,-946.75C524.5,-939.8 524.5,-929.85 524.5,-921.13"/>
<polygon fill="black" stroke="black" points="528,-921.09 524.5,-911.09 521,-921.09 528,-921.09"/>
</g>
<!-- 139970453792512 -->
<g id="node41" class="node">
<title>139970453792512</title>
<polygon fill="lightblue" stroke="black" points="581,-1032 480,-1032 480,-1002 581,-1002 581,-1032"/>
<text text-anchor="middle" x="530.5" y="-1020" font-family="monospace" font-size="10.00">conv4.weight</text>
<text text-anchor="middle" x="530.5" y="-1009" font-family="monospace" font-size="10.00"> (256, 128, 5)</text>
</g>
<!-- 139970453792512&#45;&gt;139966700973088 -->
<g id="edge39" class="edge">
<title>139970453792512&#45;&gt;139966700973088</title>
<path fill="none" stroke="black" d="M529.05,-1001.84C528.27,-994.21 527.29,-984.7 526.44,-976.45"/>
<polygon fill="black" stroke="black" points="529.9,-975.86 525.4,-966.27 522.94,-976.57 529.9,-975.86"/>
</g>
<!-- 139966700975344 -->
<g id="node42" class="node">
<title>139966700975344</title>
<polygon fill="lightgrey" stroke="black" points="694,-966 593,-966 593,-947 694,-947 694,-966"/>
<text text-anchor="middle" x="643.5" y="-954" font-family="monospace" font-size="10.00">AccumulateGrad</text>
</g>
<!-- 139966700975344&#45;&gt;139966700973952 -->
<g id="edge40" class="edge">
<title>139966700975344&#45;&gt;139966700973952</title>
<path fill="none" stroke="black" d="M624.38,-946.98C605.15,-938.42 575.27,-925.11 553.19,-915.28"/>
<polygon fill="black" stroke="black" points="554.53,-912.04 543.97,-911.17 551.68,-918.44 554.53,-912.04"/>
</g>
<!-- 139972718207248 -->
<g id="node43" class="node">
<title>139972718207248</title>
<polygon fill="lightblue" stroke="black" points="682,-1032 605,-1032 605,-1002 682,-1002 682,-1032"/>
<text text-anchor="middle" x="643.5" y="-1020" font-family="monospace" font-size="10.00">conv4.bias</text>
<text text-anchor="middle" x="643.5" y="-1009" font-family="monospace" font-size="10.00"> (256)</text>
</g>
<!-- 139972718207248&#45;&gt;139966700975344 -->
<g id="edge41" class="edge">
<title>139972718207248&#45;&gt;139966700975344</title>
<path fill="none" stroke="black" d="M643.5,-1001.84C643.5,-994.21 643.5,-984.7 643.5,-976.45"/>
<polygon fill="black" stroke="black" points="647,-976.27 643.5,-966.27 640,-976.27 647,-976.27"/>
</g>
<!-- 139966700976448 -->
<g id="node44" class="node">
<title>139966700976448</title>
<polygon fill="lightgrey" stroke="black" points="742,-564.5 641,-564.5 641,-545.5 742,-545.5 742,-564.5"/>
<text text-anchor="middle" x="691.5" y="-552.5" font-family="monospace" font-size="10.00">AccumulateGrad</text>
</g>
<!-- 139966700976448&#45;&gt;139966700976256 -->
<g id="edge42" class="edge">
<title>139966700976448&#45;&gt;139966700976256</title>
<path fill="none" stroke="black" d="M717.26,-545.37C750.82,-534.12 809.63,-514.42 847.29,-501.8"/>
<polygon fill="black" stroke="black" points="848.47,-505.09 856.84,-498.6 846.25,-498.46 848.47,-505.09"/>
</g>
<!-- 139970456835936 -->
<g id="node45" class="node">
<title>139970456835936</title>
<polygon fill="lightblue" stroke="black" points="742,-636 617,-636 617,-606 742,-606 742,-636"/>
<text text-anchor="middle" x="679.5" y="-624" font-family="monospace" font-size="10.00">lstm1.weight_ih_l0</text>
<text text-anchor="middle" x="679.5" y="-613" font-family="monospace" font-size="10.00"> (128, 256)</text>
</g>
<!-- 139970456835936&#45;&gt;139966700976448 -->
<g id="edge43" class="edge">
<title>139970456835936&#45;&gt;139966700976448</title>
<path fill="none" stroke="black" d="M682.16,-605.8C683.87,-596.7 686.1,-584.79 687.96,-574.9"/>
<polygon fill="black" stroke="black" points="691.44,-575.32 689.84,-564.84 684.56,-574.03 691.44,-575.32"/>
</g>
<!-- 139966700975440 -->
<g id="node46" class="node">
<title>139966700975440</title>
<polygon fill="lightgrey" stroke="black" points="873,-564.5 772,-564.5 772,-545.5 873,-545.5 873,-564.5"/>
<text text-anchor="middle" x="822.5" y="-552.5" font-family="monospace" font-size="10.00">AccumulateGrad</text>
</g>
<!-- 139966700975440&#45;&gt;139966700976256 -->
<g id="edge44" class="edge">
<title>139966700975440&#45;&gt;139966700976256</title>
<path fill="none" stroke="black" d="M830.59,-545.37C839.93,-535.4 855.51,-518.79 867.16,-506.36"/>
<polygon fill="black" stroke="black" points="869.87,-508.59 874.15,-498.91 864.76,-503.81 869.87,-508.59"/>
</g>
<!-- 139970443762704 -->
<g id="node47" class="node">
<title>139970443762704</title>
<polygon fill="lightblue" stroke="black" points="885,-636 760,-636 760,-606 885,-606 885,-636"/>
<text text-anchor="middle" x="822.5" y="-624" font-family="monospace" font-size="10.00">lstm1.weight_hh_l0</text>
<text text-anchor="middle" x="822.5" y="-613" font-family="monospace" font-size="10.00"> (128, 32)</text>
</g>
<!-- 139970443762704&#45;&gt;139966700975440 -->
<g id="edge45" class="edge">
<title>139970443762704&#45;&gt;139966700975440</title>
<path fill="none" stroke="black" d="M822.5,-605.8C822.5,-596.7 822.5,-584.79 822.5,-574.9"/>
<polygon fill="black" stroke="black" points="826,-574.84 822.5,-564.84 819,-574.84 826,-574.84"/>
</g>
<!-- 139966700974960 -->
<g id="node48" class="node">
<title>139966700974960</title>
<polygon fill="lightgrey" stroke="black" points="992,-564.5 891,-564.5 891,-545.5 992,-545.5 992,-564.5"/>
<text text-anchor="middle" x="941.5" y="-552.5" font-family="monospace" font-size="10.00">AccumulateGrad</text>
</g>
<!-- 139966700974960&#45;&gt;139966700976256 -->
<g id="edge46" class="edge">
<title>139966700974960&#45;&gt;139966700976256</title>
<path fill="none" stroke="black" d="M933.54,-545.37C924.36,-535.4 909.04,-518.79 897.58,-506.36"/>
<polygon fill="black" stroke="black" points="900.06,-503.89 890.71,-498.91 894.91,-508.63 900.06,-503.89"/>
</g>
<!-- 139970443764784 -->
<g id="node49" class="node">
<title>139970443764784</title>
<polygon fill="lightblue" stroke="black" points="1016,-636 903,-636 903,-606 1016,-606 1016,-636"/>
<text text-anchor="middle" x="959.5" y="-624" font-family="monospace" font-size="10.00">lstm1.bias_ih_l0</text>
<text text-anchor="middle" x="959.5" y="-613" font-family="monospace" font-size="10.00"> (128)</text>
</g>
<!-- 139970443764784&#45;&gt;139966700974960 -->
<g id="edge47" class="edge">
<title>139970443764784&#45;&gt;139966700974960</title>
<path fill="none" stroke="black" d="M955.51,-605.8C952.92,-596.6 949.52,-584.53 946.73,-574.58"/>
<polygon fill="black" stroke="black" points="950.06,-573.52 943.99,-564.84 943.33,-575.42 950.06,-573.52"/>
</g>
<!-- 139966700974384 -->
<g id="node50" class="node">
<title>139966700974384</title>
<polygon fill="lightgrey" stroke="black" points="1111,-564.5 1010,-564.5 1010,-545.5 1111,-545.5 1111,-564.5"/>
<text text-anchor="middle" x="1060.5" y="-552.5" font-family="monospace" font-size="10.00">AccumulateGrad</text>
</g>
<!-- 139966700974384&#45;&gt;139966700976256 -->
<g id="edge48" class="edge">
<title>139966700974384&#45;&gt;139966700976256</title>
<path fill="none" stroke="black" d="M1036.49,-545.37C1005.49,-534.22 951.34,-514.75 916.21,-502.12"/>
<polygon fill="black" stroke="black" points="917,-498.69 906.41,-498.6 914.64,-505.27 917,-498.69"/>
</g>
<!-- 139972718206368 -->
<g id="node51" class="node">
<title>139972718206368</title>
<polygon fill="lightblue" stroke="black" points="1147,-636 1034,-636 1034,-606 1147,-606 1147,-636"/>
<text text-anchor="middle" x="1090.5" y="-624" font-family="monospace" font-size="10.00">lstm1.bias_hh_l0</text>
<text text-anchor="middle" x="1090.5" y="-613" font-family="monospace" font-size="10.00"> (128)</text>
</g>
<!-- 139972718206368&#45;&gt;139966700974384 -->
<g id="edge49" class="edge">
<title>139972718206368&#45;&gt;139966700974384</title>
<path fill="none" stroke="black" d="M1083.84,-605.8C1079.44,-596.41 1073.63,-584.02 1068.91,-573.95"/>
<polygon fill="black" stroke="black" points="1072.06,-572.41 1064.65,-564.84 1065.72,-575.38 1072.06,-572.41"/>
</g>
<!-- 139966700971360 -->
<g id="node52" class="node">
<title>139966700971360</title>
<polygon fill="lightgrey" stroke="black" points="1254,-498.5 1153,-498.5 1153,-479.5 1254,-479.5 1254,-498.5"/>
<text text-anchor="middle" x="1203.5" y="-486.5" font-family="monospace" font-size="10.00">AccumulateGrad</text>
</g>
<!-- 139966700971360&#45;&gt;139966700974768 -->
<g id="edge50" class="edge">
<title>139966700971360&#45;&gt;139966700974768</title>
<path fill="none" stroke="black" d="M1231.27,-479.49C1264.37,-469.36 1319.84,-452.37 1356.79,-441.05"/>
<polygon fill="black" stroke="black" points="1358.16,-444.29 1366.69,-438.02 1356.11,-437.6 1358.16,-444.29"/>
</g>
<!-- 139972718206288 -->
<g id="node53" class="node">
<title>139972718206288</title>
<polygon fill="lightblue" stroke="black" points="1254,-570 1129,-570 1129,-540 1254,-540 1254,-570"/>
<text text-anchor="middle" x="1191.5" y="-558" font-family="monospace" font-size="10.00">lstm2.weight_ih_l0</text>
<text text-anchor="middle" x="1191.5" y="-547" font-family="monospace" font-size="10.00"> (128, 32)</text>
</g>
<!-- 139972718206288&#45;&gt;139966700971360 -->
<g id="edge51" class="edge">
<title>139972718206288&#45;&gt;139966700971360</title>
<path fill="none" stroke="black" d="M1194.16,-539.8C1195.87,-530.7 1198.1,-518.79 1199.96,-508.9"/>
<polygon fill="black" stroke="black" points="1203.44,-509.32 1201.84,-498.84 1196.56,-508.03 1203.44,-509.32"/>
</g>
<!-- 139966700976688 -->
<g id="node54" class="node">
<title>139966700976688</title>
<polygon fill="lightgrey" stroke="black" points="1385,-498.5 1284,-498.5 1284,-479.5 1385,-479.5 1385,-498.5"/>
<text text-anchor="middle" x="1334.5" y="-486.5" font-family="monospace" font-size="10.00">AccumulateGrad</text>
</g>
<!-- 139966700976688&#45;&gt;139966700974768 -->
<g id="edge52" class="edge">
<title>139966700976688&#45;&gt;139966700974768</title>
<path fill="none" stroke="black" d="M1343.35,-479.37C1352.48,-470.47 1366.92,-456.39 1378.14,-445.45"/>
<polygon fill="black" stroke="black" points="1380.89,-447.65 1385.61,-438.17 1376.01,-442.64 1380.89,-447.65"/>
</g>
<!-- 139972718206528 -->
<g id="node55" class="node">
<title>139972718206528</title>
<polygon fill="lightblue" stroke="black" points="1397,-570 1272,-570 1272,-540 1397,-540 1397,-570"/>
<text text-anchor="middle" x="1334.5" y="-558" font-family="monospace" font-size="10.00">lstm2.weight_hh_l0</text>
<text text-anchor="middle" x="1334.5" y="-547" font-family="monospace" font-size="10.00"> (128, 32)</text>
</g>
<!-- 139972718206528&#45;&gt;139966700976688 -->
<g id="edge53" class="edge">
<title>139972718206528&#45;&gt;139966700976688</title>
<path fill="none" stroke="black" d="M1334.5,-539.8C1334.5,-530.7 1334.5,-518.79 1334.5,-508.9"/>
<polygon fill="black" stroke="black" points="1338,-508.84 1334.5,-498.84 1331,-508.84 1338,-508.84"/>
</g>
<!-- 139966700975920 -->
<g id="node56" class="node">
<title>139966700975920</title>
<polygon fill="lightgrey" stroke="black" points="1504,-498.5 1403,-498.5 1403,-479.5 1504,-479.5 1504,-498.5"/>
<text text-anchor="middle" x="1453.5" y="-486.5" font-family="monospace" font-size="10.00">AccumulateGrad</text>
</g>
<!-- 139966700975920&#45;&gt;139966700974768 -->
<g id="edge54" class="edge">
<title>139966700975920&#45;&gt;139966700974768</title>
<path fill="none" stroke="black" d="M1444.79,-479.37C1435.82,-470.47 1421.62,-456.39 1410.59,-445.45"/>
<polygon fill="black" stroke="black" points="1412.81,-442.72 1403.24,-438.17 1407.88,-447.69 1412.81,-442.72"/>
</g>
<!-- 139972718207728 -->
<g id="node57" class="node">
<title>139972718207728</title>
<polygon fill="lightblue" stroke="black" points="1528,-570 1415,-570 1415,-540 1528,-540 1528,-570"/>
<text text-anchor="middle" x="1471.5" y="-558" font-family="monospace" font-size="10.00">lstm2.bias_ih_l0</text>
<text text-anchor="middle" x="1471.5" y="-547" font-family="monospace" font-size="10.00"> (128)</text>
</g>
<!-- 139972718207728&#45;&gt;139966700975920 -->
<g id="edge55" class="edge">
<title>139972718207728&#45;&gt;139966700975920</title>
<path fill="none" stroke="black" d="M1467.51,-539.8C1464.92,-530.6 1461.52,-518.53 1458.73,-508.58"/>
<polygon fill="black" stroke="black" points="1462.06,-507.52 1455.99,-498.84 1455.33,-509.42 1462.06,-507.52"/>
</g>
<!-- 139966700976016 -->
<g id="node58" class="node">
<title>139966700976016</title>
<polygon fill="lightgrey" stroke="black" points="1623,-498.5 1522,-498.5 1522,-479.5 1623,-479.5 1623,-498.5"/>
<text text-anchor="middle" x="1572.5" y="-486.5" font-family="monospace" font-size="10.00">AccumulateGrad</text>
</g>
<!-- 139966700976016&#45;&gt;139966700974768 -->
<g id="edge56" class="edge">
<title>139966700976016&#45;&gt;139966700974768</title>
<path fill="none" stroke="black" d="M1546.62,-479.49C1515.9,-469.4 1464.52,-452.51 1430.08,-441.19"/>
<polygon fill="black" stroke="black" points="1431.01,-437.81 1420.41,-438.02 1428.82,-444.46 1431.01,-437.81"/>
</g>
<!-- 139972718206688 -->
<g id="node59" class="node">
<title>139972718206688</title>
<polygon fill="lightblue" stroke="black" points="1659,-570 1546,-570 1546,-540 1659,-540 1659,-570"/>
<text text-anchor="middle" x="1602.5" y="-558" font-family="monospace" font-size="10.00">lstm2.bias_hh_l0</text>
<text text-anchor="middle" x="1602.5" y="-547" font-family="monospace" font-size="10.00"> (128)</text>
</g>
<!-- 139972718206688&#45;&gt;139966700976016 -->
<g id="edge57" class="edge">
<title>139972718206688&#45;&gt;139966700976016</title>
<path fill="none" stroke="black" d="M1595.84,-539.8C1591.44,-530.41 1585.63,-518.02 1580.91,-507.95"/>
<polygon fill="black" stroke="black" points="1584.06,-506.41 1576.65,-498.84 1577.72,-509.38 1584.06,-506.41"/>
</g>
<!-- 139966700976640 -->
<g id="node60" class="node">
<title>139966700976640</title>
<polygon fill="lightgrey" stroke="black" points="1766,-438 1665,-438 1665,-419 1766,-419 1766,-438"/>
<text text-anchor="middle" x="1715.5" y="-426" font-family="monospace" font-size="10.00">AccumulateGrad</text>
</g>
<!-- 139966700976640&#45;&gt;139966700975968 -->
<g id="edge58" class="edge">
<title>139966700976640&#45;&gt;139966700975968</title>
<path fill="none" stroke="black" d="M1736.55,-418.98C1757.91,-410.34 1791.2,-396.87 1815.56,-387.02"/>
<polygon fill="black" stroke="black" points="1817.11,-390.17 1825.07,-383.17 1814.49,-383.68 1817.11,-390.17"/>
</g>
<!-- 139972718208208 -->
<g id="node61" class="node">
<title>139972718208208</title>
<polygon fill="lightblue" stroke="black" points="1766,-504 1641,-504 1641,-474 1766,-474 1766,-504"/>
<text text-anchor="middle" x="1703.5" y="-492" font-family="monospace" font-size="10.00">lstm3.weight_ih_l0</text>
<text text-anchor="middle" x="1703.5" y="-481" font-family="monospace" font-size="10.00"> (128, 32)</text>
</g>
<!-- 139972718208208&#45;&gt;139966700976640 -->
<g id="edge59" class="edge">
<title>139972718208208&#45;&gt;139966700976640</title>
<path fill="none" stroke="black" d="M1706.4,-473.84C1707.99,-466.13 1709.96,-456.49 1711.67,-448.17"/>
<polygon fill="black" stroke="black" points="1715.12,-448.77 1713.7,-438.27 1708.26,-447.36 1715.12,-448.77"/>
</g>
<!-- 139966700970112 -->
<g id="node62" class="node">
<title>139966700970112</title>
<polygon fill="lightgrey" stroke="black" points="1897,-438 1796,-438 1796,-419 1897,-419 1897,-438"/>
<text text-anchor="middle" x="1846.5" y="-426" font-family="monospace" font-size="10.00">AccumulateGrad</text>
</g>
<!-- 139966700970112&#45;&gt;139966700975968 -->
<g id="edge60" class="edge">
<title>139966700970112&#45;&gt;139966700975968</title>
<path fill="none" stroke="black" d="M1846.5,-418.75C1846.5,-411.8 1846.5,-401.85 1846.5,-393.13"/>
<polygon fill="black" stroke="black" points="1850,-393.09 1846.5,-383.09 1843,-393.09 1850,-393.09"/>
</g>
<!-- 139972819776704 -->
<g id="node63" class="node">
<title>139972819776704</title>
<polygon fill="lightblue" stroke="black" points="1909,-504 1784,-504 1784,-474 1909,-474 1909,-504"/>
<text text-anchor="middle" x="1846.5" y="-492" font-family="monospace" font-size="10.00">lstm3.weight_hh_l0</text>
<text text-anchor="middle" x="1846.5" y="-481" font-family="monospace" font-size="10.00"> (128, 32)</text>
</g>
<!-- 139972819776704&#45;&gt;139966700970112 -->
<g id="edge61" class="edge">
<title>139972819776704&#45;&gt;139966700970112</title>
<path fill="none" stroke="black" d="M1846.5,-473.84C1846.5,-466.21 1846.5,-456.7 1846.5,-448.45"/>
<polygon fill="black" stroke="black" points="1850,-448.27 1846.5,-438.27 1843,-448.27 1850,-448.27"/>
</g>
<!-- 139966700975152 -->
<g id="node64" class="node">
<title>139966700975152</title>
<polygon fill="lightgrey" stroke="black" points="2025,-438 1924,-438 1924,-419 2025,-419 2025,-438"/>
<text text-anchor="middle" x="1974.5" y="-426" font-family="monospace" font-size="10.00">AccumulateGrad</text>
</g>
<!-- 139966700975152&#45;&gt;139966700975968 -->
<g id="edge62" class="edge">
<title>139966700975152&#45;&gt;139966700975968</title>
<path fill="none" stroke="black" d="M1953.93,-418.98C1933.07,-410.34 1900.53,-396.87 1876.73,-387.02"/>
<polygon fill="black" stroke="black" points="1878.02,-383.76 1867.44,-383.17 1875.34,-390.23 1878.02,-383.76"/>
</g>
<!-- 139972819778464 -->
<g id="node65" class="node">
<title>139972819778464</title>
<polygon fill="lightblue" stroke="black" points="2040,-504 1927,-504 1927,-474 2040,-474 2040,-504"/>
<text text-anchor="middle" x="1983.5" y="-492" font-family="monospace" font-size="10.00">lstm3.bias_ih_l0</text>
<text text-anchor="middle" x="1983.5" y="-481" font-family="monospace" font-size="10.00"> (128)</text>
</g>
<!-- 139972819778464&#45;&gt;139966700975152 -->
<g id="edge63" class="edge">
<title>139972819778464&#45;&gt;139966700975152</title>
<path fill="none" stroke="black" d="M1981.32,-473.84C1980.13,-466.13 1978.65,-456.49 1977.37,-448.17"/>
<polygon fill="black" stroke="black" points="1980.83,-447.62 1975.85,-438.27 1973.91,-448.68 1980.83,-447.62"/>
</g>
<!-- 139966700975584 -->
<g id="node66" class="node">
<title>139966700975584</title>
<polygon fill="lightgrey" stroke="black" points="2154,-438 2053,-438 2053,-419 2154,-419 2154,-438"/>
<text text-anchor="middle" x="2103.5" y="-426" font-family="monospace" font-size="10.00">AccumulateGrad</text>
</g>
<!-- 139966700975584&#45;&gt;139966700975968 -->
<g id="edge64" class="edge">
<title>139966700975584&#45;&gt;139966700975968</title>
<path fill="none" stroke="black" d="M2062.21,-418.98C2017.57,-409.78 1946.34,-395.09 1898.05,-385.13"/>
<polygon fill="black" stroke="black" points="1898.62,-381.67 1888.12,-383.08 1897.2,-388.53 1898.62,-381.67"/>
</g>
<!-- 139972819777904 -->
<g id="node67" class="node">
<title>139972819777904</title>
<polygon fill="lightblue" stroke="black" points="2171,-504 2058,-504 2058,-474 2171,-474 2171,-504"/>
<text text-anchor="middle" x="2114.5" y="-492" font-family="monospace" font-size="10.00">lstm3.bias_hh_l0</text>
<text text-anchor="middle" x="2114.5" y="-481" font-family="monospace" font-size="10.00"> (128)</text>
</g>
<!-- 139972819777904&#45;&gt;139966700975584 -->
<g id="edge65" class="edge">
<title>139972819777904&#45;&gt;139966700975584</title>
<path fill="none" stroke="black" d="M2111.84,-473.84C2110.39,-466.13 2108.57,-456.49 2107.01,-448.17"/>
<polygon fill="black" stroke="black" points="2110.44,-447.45 2105.15,-438.27 2103.56,-448.74 2110.44,-447.45"/>
</g>
<!-- 139971370793040 -->
<g id="node68" class="node">
<title>139971370793040</title>
<polygon fill="lightgrey" stroke="black" points="2003,-141 1926,-141 1926,-122 2003,-122 2003,-141"/>
<text text-anchor="middle" x="1964.5" y="-129" font-family="monospace" font-size="10.00">TBackward0</text>
</g>
<!-- 139971370793040&#45;&gt;139971370779696 -->
<g id="edge66" class="edge">
<title>139971370793040&#45;&gt;139971370779696</title>
<path fill="none" stroke="black" d="M1946.18,-121.98C1927.84,-113.46 1899.39,-100.23 1878.27,-90.41"/>
<polygon fill="black" stroke="black" points="1879.69,-87.21 1869.15,-86.17 1876.74,-93.56 1879.69,-87.21"/>
</g>
<!-- 139966700974240 -->
<g id="node69" class="node">
<title>139966700974240</title>
<polygon fill="lightgrey" stroke="black" points="2019,-201.5 1918,-201.5 1918,-182.5 2019,-182.5 2019,-201.5"/>
<text text-anchor="middle" x="1968.5" y="-189.5" font-family="monospace" font-size="10.00">AccumulateGrad</text>
</g>
<!-- 139966700974240&#45;&gt;139971370793040 -->
<g id="edge67" class="edge">
<title>139966700974240&#45;&gt;139971370793040</title>
<path fill="none" stroke="black" d="M1967.91,-182.37C1967.35,-174.25 1966.5,-161.81 1965.79,-151.39"/>
<polygon fill="black" stroke="black" points="1969.27,-150.91 1965.09,-141.17 1962.28,-151.38 1969.27,-150.91"/>
</g>
<!-- 139972819776864 -->
<g id="node70" class="node">
<title>139972819776864</title>
<polygon fill="lightblue" stroke="black" points="2004,-273 1933,-273 1933,-243 2004,-243 2004,-273"/>
<text text-anchor="middle" x="1968.5" y="-261" font-family="monospace" font-size="10.00">fc.weight</text>
<text text-anchor="middle" x="1968.5" y="-250" font-family="monospace" font-size="10.00"> (1, 32)</text>
</g>
<!-- 139972819776864&#45;&gt;139966700974240 -->
<g id="edge68" class="edge">
<title>139972819776864&#45;&gt;139966700974240</title>
<path fill="none" stroke="black" d="M1968.5,-242.8C1968.5,-233.7 1968.5,-221.79 1968.5,-211.9"/>
<polygon fill="black" stroke="black" points="1972,-211.84 1968.5,-201.84 1965,-211.84 1972,-211.84"/>
</g>
</g>
</svg>
